<?xml version="1.0" standalone="no"?>
<!DOCTYPE svg PUBLIC "-//W3C//DTD SVG 20010904//EN"
 "http://www.w3.org/TR/2001/REC-SVG-20010904/DTD/svg10.dtd">
<svg version="1.0" xmlns="http://www.w3.org/2000/svg"
 width="3334.000000pt" height="3334.000000pt" viewBox="0 0 3334.000000 3334.000000"
 preserveAspectRatio="xMidYMid meet">
<metadata>
Created by potrace 1.14, written by Peter Selinger 2001-2017
</metadata>
<g transform="translate(0.000000,3334.000000) scale(0.100000,-0.100000)"
fill="#000000" stroke="none">
<path d="M16397 31848 c-168 -22 -371 -121 -566 -278 -122 -97 -194 -168
-1061 -1050 -1067 -1085 -1386 -1406 -3305 -3325 -1732 -1732 -2516 -2512
-3601 -3582 -122 -120 -450 -443 -728 -717 -278 -275 -575 -566 -659 -649 -83
-82 -276 -271 -428 -420 -310 -305 -1023 -1005 -1229 -1207 -74 -72 -306 -300
-515 -505 -209 -205 -432 -423 -495 -485 -63 -61 -281 -275 -484 -473 -203
-199 -417 -409 -476 -467 -993 -971 -1098 -1075 -1176 -1165 -345 -397 -403
-704 -198 -1056 107 -184 223 -307 1136 -1204 685 -673 1411 -1389 2263 -2230
328 -324 716 -707 860 -850 260 -257 1402 -1387 1949 -1929 154 -153 688 -682
1185 -1175 497 -493 1055 -1046 1240 -1230 185 -183 784 -778 1331 -1321 547
-543 1148 -1140 1335 -1325 187 -186 761 -755 1275 -1265 1523 -1511 1771
-1756 1880 -1851 63 -55 97 -84 211 -180 29 -26 152 -131 273 -233 l218 -187
20 23 c29 34 207 225 258 278 41 43 458 473 575 594 28 29 95 101 150 160 230
249 352 394 504 596 39 52 75 100 79 105 4 6 35 51 68 100 139 207 175 302
171 447 -3 110 -19 159 -89 269 -62 99 -236 264 -388 369 -42 30 -35 24 -190
149 -78 62 -203 181 -330 312 -147 153 -1217 1235 -1456 1473 -6 6 -355 351
-774 766 -420 415 -1095 1086 -1500 1490 -795 793 -804 801 -990 965 -69 61
-127 112 -130 115 -3 3 -34 30 -70 60 -36 30 -67 57 -70 60 -3 3 -99 84 -215
180 -115 96 -212 177 -215 180 -3 3 -72 61 -155 130 -82 69 -152 127 -155 130
-3 3 -57 50 -120 104 -63 55 -122 107 -131 115 -9 9 -52 48 -95 86 -108 96
-416 404 -489 490 -33 38 -68 79 -78 90 -10 11 -58 72 -106 135 -358 471 -481
894 -387 1335 55 256 183 505 405 783 95 118 386 415 526 537 169 147 194 168
406 336 181 144 152 122 480 377 296 229 422 331 569 457 58 49 121 103 140
119 55 47 519 515 585 591 158 180 275 341 342 470 36 69 79 185 87 236 3 18
8 45 11 59 11 53 5 210 -11 281 -59 262 -222 514 -537 832 -396 401 -731 643
-1017 736 -124 40 -297 55 -417 36 -245 -38 -494 -191 -760 -466 -122 -127
-146 -154 -303 -344 -127 -153 -159 -189 -289 -327 -150 -158 -446 -448 -621
-608 -19 -18 -60 -55 -91 -84 -362 -335 -500 -468 -673 -645 -172 -177 -174
-179 -242 -258 -32 -37 -73 -83 -91 -103 -17 -19 -63 -75 -103 -125 -188 -237
-355 -402 -518 -513 -80 -55 -240 -129 -287 -133 -2 0 -27 -7 -55 -14 -51 -14
-224 -14 -290 0 -245 49 -527 230 -946 605 -27 25 -66 59 -85 75 -193 167
-380 348 -454 440 -22 28 -45 55 -51 60 -51 46 -173 261 -209 369 -32 96 -40
147 -39 251 1 183 55 331 198 543 123 182 294 365 791 847 55 53 241 235 414
403 172 169 368 360 435 425 104 102 639 628 1240 1221 384 378 2181 2161
3788 3758 606 603 1218 1210 1359 1350 380 375 1343 1325 1505 1484 239 235
873 856 985 965 288 280 690 671 749 729 37 36 172 166 301 290 265 256 240
232 340 336 237 248 405 518 434 699 5 28 10 57 12 65 8 34 4 159 -7 219 -24
134 -97 282 -214 436 -58 77 -287 314 -391 406 -133 116 -198 175 -291 266
-185 179 -248 237 -314 293 -36 30 -67 57 -70 60 -3 3 -21 17 -40 30 -19 14
-44 32 -54 42 -11 10 -25 18 -32 18 -7 0 -14 4 -16 9 -3 9 -160 91 -182 95 -6
2 -36 10 -67 20 -65 19 -177 25 -262 14z"/>
<path d="M20774 27485 c-125 -27 -263 -101 -418 -222 -90 -71 -472 -455 -996
-1003 -64 -67 -410 -422 -763 -784 -593 -607 -1816 -1818 -2182 -2161 -27 -26
-112 -106 -189 -178 -205 -195 -203 -193 -326 -307 -235 -219 -246 -229 -440
-405 -153 -138 -437 -416 -475 -465 -11 -14 -36 -46 -56 -70 -111 -139 -217
-336 -236 -440 -2 -14 -9 -45 -14 -70 -14 -64 -11 -204 6 -280 21 -92 20 -90
49 -158 106 -251 291 -473 792 -948 87 -84 187 -178 221 -210 55 -53 323 -311
562 -542 536 -519 1364 -1340 3150 -3122 1138 -1135 1593 -1586 2112 -2090
178 -173 420 -412 539 -530 392 -391 535 -597 606 -870 17 -66 23 -233 11
-300 -14 -74 -18 -90 -28 -117 -6 -16 -10 -29 -10 -30 1 -5 -11 -38 -31 -88
-76 -192 -258 -441 -495 -680 -140 -142 -367 -347 -437 -394 -12 -8 -23 -18
-26 -21 -10 -12 -176 -126 -235 -162 -220 -132 -449 -202 -626 -191 -35 2 -71
4 -79 5 -60 1 -253 66 -322 108 -18 11 -40 23 -48 26 -18 8 -163 105 -170 113
-3 4 -27 24 -55 46 -77 61 -256 238 -358 355 -50 58 -96 110 -102 116 -5 6
-28 33 -50 60 -42 51 -97 114 -130 150 -11 12 -54 59 -95 104 -126 139 -477
484 -711 701 -16 14 -77 71 -137 127 -60 56 -120 111 -133 123 -50 43 -348
330 -453 436 -275 277 -381 394 -587 649 -75 93 -177 210 -226 260 -81 82
-222 198 -283 233 -43 25 -144 73 -160 76 -8 2 -16 4 -17 5 -2 2 -6 3 -10 4
-205 46 -343 27 -530 -74 -154 -83 -254 -170 -623 -539 -168 -168 -380 -378
-471 -466 -365 -353 -488 -556 -487 -807 1 -159 64 -325 190 -503 69 -97 276
-313 463 -481 66 -60 147 -134 180 -165 33 -31 85 -79 115 -107 82 -75 125
-116 255 -237 124 -116 135 -126 370 -350 81 -77 175 -166 209 -199 581 -553
2005 -1977 2726 -2726 40 -41 168 -174 285 -295 117 -121 266 -276 331 -345
271 -285 544 -549 634 -617 358 -265 649 -292 981 -89 150 91 299 226 589 532
63 66 197 206 296 310 100 104 201 210 225 235 39 41 117 123 507 527 507 526
1808 1836 2223 2237 162 158 510 492 600 577 159 151 338 318 488 458 63 58
128 119 145 135 18 17 75 68 126 115 344 314 484 475 580 669 128 256 107 494
-68 761 -111 171 -251 319 -872 920 -273 265 -601 586 -1094 1073 -143 142
-938 934 -1766 1760 -1544 1541 -2275 2260 -2856 2814 -28 26 -124 118 -213
203 -193 184 -199 189 -372 350 -290 271 -475 465 -597 630 -79 106 -163 281
-193 400 -32 128 -30 258 6 395 31 118 158 350 247 450 15 17 53 62 86 100 91
107 260 275 573 567 103 96 203 183 274 239 44 35 82 66 85 69 3 3 37 25 75
50 257 167 445 206 700 147 79 -19 222 -90 330 -165 193 -134 259 -197 763
-731 24 -25 119 -124 210 -220 92 -95 191 -199 221 -230 654 -687 2435 -2474
3551 -3562 69 -67 271 -264 450 -439 179 -175 368 -359 420 -410 52 -51 229
-224 394 -384 164 -160 348 -340 410 -399 920 -896 1034 -1011 1151 -1156 194
-243 300 -345 425 -413 130 -70 282 -71 434 -4 133 59 548 373 930 705 114 99
714 636 726 650 3 3 46 42 95 86 50 44 95 85 101 90 18 16 136 119 186 163 39
33 45 43 35 54 -7 7 -107 128 -221 268 -115 140 -220 269 -235 286 -14 17 -44
53 -66 80 -108 131 -122 145 -1511 1520 -407 403 -845 836 -974 964 -129 128
-532 526 -895 885 -363 359 -761 753 -885 875 -1110 1096 -2107 2087 -3740
3717 -1053 1051 -1941 1932 -1972 1957 -139 111 -266 183 -388 221 -71 22
-228 27 -306 10z"/>
</g>
</svg>
